<?xml version="1.0" standalone="no"?>
<!DOCTYPE svg PUBLIC "-//W3C//DTD SVG 20010904//EN"
 "http://www.w3.org/TR/2001/REC-SVG-20010904/DTD/svg10.dtd">
<svg version="1.0" xmlns="http://www.w3.org/2000/svg"
 width="510.000000pt" height="510.000000pt" viewBox="0 0 510.000000 510.000000"
 preserveAspectRatio="xMidYMid meet">
<metadata>
Created by potrace 1.11, written by Peter Selinger 2001-2013
</metadata>
<g transform="translate(0.000000,510.000000) scale(0.100000,-0.100000)"
fill="#000000" stroke="none">
<path d="M2427 4704 c-1 -1 -47 -4 -102 -8 -96 -6 -135 -11 -181 -21 -12 -3
-39 -7 -60 -11 -185 -27 -468 -133 -672 -251 -60 -35 -211 -135 -238 -159 -12
-11 -39 -32 -60 -49 -39 -30 -214 -201 -269 -265 -67 -77 -235 -316 -235 -336
0 -4 -10 -23 -22 -43 -13 -20 -23 -38 -24 -41 0 -3 -18 -41 -38 -85 -54 -113
-93 -222 -127 -355 -26 -103 -34 -142 -54 -270 -10 -63 -13 -433 -5 -500 15
-112 18 -134 29 -185 87 -435 284 -805 594 -1117 252 -254 583 -453 913 -548
81 -24 220 -56 284 -65 25 -4 59 -9 75 -11 17 -3 122 -6 235 -8 220 -3 362 11
545 55 90 22 315 99 367 125 15 8 29 14 30 13 2 0 40 20 86 45 45 25 85 46 88
46 14 0 219 147 304 218 316 264 556 624 678 1019 60 191 94 414 95 621 1 106
-10 309 -18 322 -2 3 -6 25 -9 50 -9 67 -61 275 -90 355 -42 121 -49 137 -111
260 -150 297 -345 536 -605 739 -299 234 -647 382 -1031 440 -76 11 -363 27
-372 20z"/>
</g>
</svg>
